<svg width="32" height="32" viewBox="0 0 32 32" fill="none" xmlns="http://www.w3.org/2000/svg">
<path opacity="0.25" d="M18.3828 5C17.7206 5 17.0723 5.0602 16.4426 5.1806C21.314 6.09283 25.0046 9.99647 25.0046 15.1319C25.0046 18.7901 22.041 22.1241 18.3828 22.1241C17.7067 22.1241 17.0584 22.0223 16.4426 21.837C13.7336 21.0082 11.761 18.4845 11.761 15.5069C11.761 12.5248 13.7336 10.0057 16.4426 9.17685C15.8313 8.98699 15.1784 8.88975 14.5023 8.88975C10.8441 8.88975 7.88049 12.2238 7.88049 15.882C7.88049 21.0174 11.5665 24.9257 16.4426 25.8333C17.0723 25.9491 17.7206 26.0139 18.3828 26.0139C24.1804 26.0139 28.8851 21.3138 28.8851 15.5116C28.8805 9.70011 24.1804 5 18.3828 5Z" fill="#37322D"/>
<path d="M14.5023 5C15.1645 5 15.8128 5.0602 16.4426 5.1806C21.314 6.09283 25.0046 9.99647 25.0046 15.1319C25.0046 18.7901 22.041 22.1241 18.3828 22.1241C17.7067 22.1241 17.0584 22.0223 16.4426 21.837C19.1515 21.0082 21.1241 18.4845 21.1241 15.5069C21.1241 12.5248 19.1515 10.0057 16.4426 9.17685C15.8267 8.98699 15.1784 8.88975 14.5023 8.88975C10.8441 8.88975 7.88049 12.2238 7.88049 15.882C7.88049 21.0174 11.5665 24.9257 16.4426 25.8333C15.8128 25.9491 15.1645 26.0139 14.5023 26.0139C8.70011 26 4 21.2999 4 15.5023C4 9.70011 8.70011 5 14.5023 5Z" fill="#FF7020"/>
</svg>
