<svg width="32" height="32" viewBox="0 0 32 32" fill="none" xmlns="http://www.w3.org/2000/svg">
<g clip-path="url(#clip0)">
<path d="M8.33931 9.15249L13.877 11.1662C15.3303 10.6343 16.8501 10.0834 18.2464 9.57993C14.1525 8.08863 9.27018 6.32188 7.68391 5.74246C7.30396 5.59998 7 5.448 7 5.85644V7.45222C7 8.3451 7.47493 8.82953 8.33931 9.15249ZM7.0095 13.1134C7.0285 13.5029 7.18997 13.5504 7.60792 13.4269C7.80739 13.3509 8.09235 13.2464 8.4723 13.1134C8.55778 13.0754 8.66227 13.0469 8.75726 13.009C9.37467 12.781 10.1726 12.496 11.0749 12.1731C9.61214 11.6411 8.25383 11.1567 7.51293 10.8812C7.18997 10.7578 7.0095 10.8527 7.0095 11.2327V12.7335V13.1134ZM21.058 13.7593C22.5018 13.2369 23.5752 12.8475 23.7652 12.781C24.8195 12.401 24.9905 12.0211 24.5346 11.8596C24.5631 11.8691 24.5821 11.8786 24.6011 11.8881C24.5631 11.8691 24.5156 11.8501 24.4586 11.8311C24.3066 11.7741 23.6322 11.5272 22.6253 11.1757C21.476 11.5936 19.8802 12.1636 18.2464 12.762L21.058 13.7593ZM21.0485 8.56357L12.6137 5.56198C11.7588 5.23903 11.2744 4.7546 11.2744 3.86172V2.25644C11.2744 1.848 11.5784 2.00948 11.9583 2.14246C14.7604 3.17782 23.6987 6.34088 24.4491 6.61634C24.5441 6.65433 24.6296 6.69233 24.696 6.73032C24.9525 6.9203 24.6675 7.24325 23.7652 7.56621C23.5942 7.6327 22.5493 8.02214 21.0485 8.56357Z" fill="#E63358"/>
<path d="M24.5346 6.65436C25.019 6.82533 24.8195 7.19578 23.7652 7.57573C23.2143 7.7752 12.6517 11.5937 8.74777 13.009C8.64329 13.047 8.5483 13.085 8.46281 13.1135C8.09237 13.2464 7.79791 13.3509 7.59843 13.4269C7.18999 13.5504 7.02851 13.5029 7.00002 13.1135C7.00002 13.3509 6.99052 13.8354 7.41796 13.9873L10.8565 15.2412C10.8565 15.2412 11.1034 15.3172 11.3314 15.2412C11.6449 15.1272 24.3351 10.5298 24.3351 10.5298C24.9525 10.3019 24.9905 9.77942 24.9905 8.27863C25 6.87283 25 6.81584 24.5346 6.65436ZM18.2275 21.1873C18.2275 20.5224 18.2939 19.962 17.705 20.171L11.2269 22.5172V25.6612L17.5626 23.3815C18.18 23.1536 18.2275 22.7166 18.2275 22.0517V21.1873ZM14.276 27.7984C14.276 27.1335 14.3425 26.5731 13.7631 26.7821L11.2269 27.7034V30.8475L13.6111 29.9926C14.2285 29.7646 14.276 29.3277 14.276 28.6628V27.7984ZM24.3446 15.7351L11.2269 20.4844V17.3214C11.2269 17.3214 23.0908 13.028 23.7652 12.7715C24.8195 12.3916 24.9905 12.0116 24.5346 11.8501C25.0095 12.0211 25 12.0781 25 13.4744C25 14.9847 24.962 15.5071 24.3446 15.7351Z" fill="#28348A"/>
</g>
<defs>
<clipPath id="clip0">
<rect width="18" height="28.8475" fill="white" transform="translate(7 2)"/>
</clipPath>
</defs>
</svg>
